<svg xmlns="http://www.w3.org/2000/svg" viewBox="0 0 320 320" width="512" height="512"><title>logo_color</title><g id="图层_2" data-name="图层 2"><g id="图层_1-2" data-name="图层 1"><path d="M130,190H10A10,10,0,0,1,0,180V110a10,10,0,0,1,10-10H180a10,10,0,0,1,10,10v20A60,60,0,0,1,130,190Z" fill="#fc6396"/><path d="M130,90H10A10,10,0,0,1,0,80V10A10,10,0,0,1,10,0H180a10,10,0,0,1,10,10V30A60,60,0,0,1,130,90Z" fill="#fc6396"/><path d="M170,130h20a0,0,0,0,1,0,0v60a0,0,0,0,1,0,0H110a0,0,0,0,1,0,0v0A60,60,0,0,1,170,130Z" fill="#d84479"/><path d="M130,190V310a10,10,0,0,0,10,10h70a10,10,0,0,0,10-10V140a10,10,0,0,0-10-10H190A60,60,0,0,0,130,190Z" fill="#52c3ef"/><path d="M230,190V310a10,10,0,0,0,10,10h70a10,10,0,0,0,10-10V140a10,10,0,0,0-10-10H290A60,60,0,0,0,230,190Z" fill="#52c3ef"/><path d="M30,290v20a10,10,0,0,0,10,10h70a10,10,0,0,0,10-10V240a10,10,0,0,0-10-10H90A60,60,0,0,0,30,290Z" fill="#52c3ef"/><path d="M30,230H90a0,0,0,0,1,0,0v20a60,60,0,0,1-60,60h0a0,0,0,0,1,0,0V230A0,0,0,0,1,30,230Z" fill="#4aa5dd"/><path d="M30,290H10A10,10,0,0,1,0,280V210a10,10,0,0,1,10-10H80a10,10,0,0,1,10,10v20A60,60,0,0,1,30,290Z" fill="#fc6396"/></g></g></svg>
